# xmcd CD database file
#
# Track frame offsets:
#	150
#	13264
#	34687
#	55835
#	78313
#	107771
#	120810
#	140738
#	158557
#	168802
#	189786
#
# Disc length: 2755 seconds
#
# Revision: 0
# Processed by: cddbd v1.5.1PL0 Copyright (c) Steve Scherf et al.
# Submitted via: CDex 1.51
#
DISCID=7b0ac10b
DTITLE=Txell Sust and August Tharrats Blues Trio - Gran Hotel Havana
DYEAR=1997
DGENRE=Jazz
TTITLE0=But not for me
TTITLE1=I want a little boy
TTITLE2=I just wanna make love to you
TTITLE3=Havana's blues
TTITLE4=Today i sing the blues
TTITLE5=I love being here with you
TTITLE6=Makin' whoopee
TTITLE7=Frim fram sauce
TTITLE8=Miss Celie's blues
TTITLE9=I dream
TTITLE10=Clipsofacto
EXTD=YEAR: 1997
EXTT0=
EXTT1=
EXTT2=
EXTT3=
EXTT4=
EXTT5=
EXTT6=
EXTT7=
EXTT8=
EXTT9=
EXTT10=
PLAYORDER=
